<?xml version="1.0" encoding="utf-8"?>
<!-- Generator: Adobe Illustrator 18.0.0, SVG Export Plug-In . SVG Version: 6.00 Build 0)  -->
<!DOCTYPE svg PUBLIC "-//W3C//DTD SVG 1.1//EN" "http://www.w3.org/Graphics/SVG/1.1/DTD/svg11.dtd">
<svg version="1.1" id="Layer_1" xmlns="http://www.w3.org/2000/svg" xmlns:xlink="http://www.w3.org/1999/xlink" x="0px" y="0px"
	 viewBox="-153.3 -3.7 293.3 60.8" enable-background="new -153.3 -3.7 293.3 60.8" xml:space="preserve">
<g>
	<path d="M101.9,24.5c2.9,2,5.8,3.9,8.7,5.9c1.6-0.6,3.2-1.3,4.7-1.9c-2.7-1.9-5.3-3.6-8-5.5C105.5,23.7,103.7,24.1,101.9,24.5z"/>
	<path d="M83,6.5c-2.4,0.1-4.7,0.1-7.1,0.2c2.9,2,5.8,3.9,8.7,5.9c2.1-0.2,4.3-0.4,6.4-0.7C88.3,10.2,85.6,8.3,83,6.5z"/>
	<path d="M99.5,17.8c-2,0.4-3.9,0.7-5.9,1c2.6,1.8,5.2,3.6,7.8,5.3c1.8-0.4,3.6-1,5.4-1.4C104.3,21.1,101.9,19.4,99.5,17.8z"/>
	<path d="M91.6,12.4c-2.1,0.2-4.3,0.4-6.4,0.7c2.6,1.8,5.2,3.6,7.8,5.3c2-0.4,3.9-0.7,5.9-1C96.4,15.7,93.9,14,91.6,12.4z"/>
	<path d="M96.4,11.4c-0.7-0.5-1.4-1-2-1.4c-1.7-1.2-3.3-2.3-5-3.5c-0.1-0.1-0.5-0.2-0.7-0.2c-1.6,0-3,0.1-4.6,0.1
		c2.7,1.8,5.3,3.6,7.9,5.4C93.3,11.7,94.8,11.6,96.4,11.4z"/>
	<path d="M118.8,26.8c-2.2-1.5-4.4-3-6.6-4.5c-0.1-0.1-0.3-0.1-0.4-0.3c-1.3,0.3-2.5,0.7-3.7,1c2.7,1.8,5.3,3.6,7.9,5.4
		c1-0.4,1.9-0.7,2.9-1.1C119.2,27.1,119.1,27,118.8,26.8z"/>
	<path d="M119.9,26.8c1-0.4,2-0.8,3-1.2c0.3-0.1,0.4-0.2,0-0.4c-2.1-1.4-4.1-2.7-6.1-4.1c-0.1-0.1-0.3-0.1-0.4-0.3
		c-1.3,0.4-2.6,0.7-3.9,1C115,23.4,117.4,25.1,119.9,26.8z"/>
	<path d="M94.8,6.2c-1.6,0.1-3.3,0.1-4.9,0.1c2.4,1.7,4.9,3.3,7.3,5c1.6-0.1,3-0.3,4.7-0.5c-2.2-1.6-4.4-3-6.7-4.5
		C95.1,6.2,94.9,6.2,94.8,6.2z"/>
	<path d="M110.7,21.7c0.4-0.1,0.4-0.2,0.1-0.4c-2-1.3-4-2.7-6-4.1c-0.1-0.1-0.3-0.1-0.4-0.3c-1.4,0.2-2.7,0.5-4.1,0.7
		c2.4,1.6,4.7,3.3,7.2,4.9C108.5,22.2,109.6,21.9,110.7,21.7z"/>
	<path d="M92.5,12.3c2.4,1.6,4.7,3.3,7.1,4.9c1.3-0.2,2.7-0.4,4.1-0.7c-2.3-1.6-4.5-3.1-6.8-4.7C95.4,12,94,12.2,92.5,12.3z"/>
	<path d="M111.9,21.4c1.3-0.4,2.6-0.7,3.9-1c-2.1-1.5-4.2-2.9-6.3-4.3c-1.4,0.2-2.8,0.5-4.2,0.7C107.5,18.3,109.7,19.8,111.9,21.4z"
		/>
	<path d="M104.6,16.3c1.4-0.2,2.8-0.5,4.2-0.7c-2.1-1.4-4.2-2.9-6.3-4.3c-1.6,0.1-3,0.3-4.6,0.5C100.2,13.3,102.4,14.8,104.6,16.3z"
		/>
	<path d="M120.1,18.6c2,1.3,4,2.7,5.9,4.1c1.1-0.4,2.1-0.8,3.3-1.3c-1.9-1.3-3.7-2.5-5.5-3.8C122.6,17.9,121.3,18.2,120.1,18.6z"/>
	<path d="M107,6.2c-1.6,0.1-3.3,0.1-4.9,0.1c2,1.4,4,2.7,5.9,4.1c1.5-0.1,3-0.3,4.4-0.4C110.7,8.6,108.9,7.4,107,6.2z"/>
	<path d="M136.3,19.1L116.2,5.5c-0.4-0.2-0.7-0.4-0.7-0.4h-0.1c0,0-0.4,0-0.8,0l-14.1,0.4c-0.4,0-1,0-1.3,0S99,5.6,99.2,5.7
		c0.2,0.1,0.7,0.4,1,0.7l12.3,8.4c0,0.7,0,1.3,0,1.6l-16.3-11c-0.5-0.4-1-0.7-1-0.7c-0.1,0-0.1-0.1-0.1-0.1s-0.6,0-1.2,0L73.4,5.4
		c-0.6,0-1.5,0.1-1.9,0.1s-0.4,0.2-0.1,0.4c0.3,0.2,1,0.7,1.5,1l15.9,11c0,6.6,0,19.6,0,27.4c-2.8,1.3-4.7,2.2-4.7,2.3
		c-0.7,0.6,3.9,1,4.7,0.8c0.9-0.3,36.3-19,42.7-22.7h-0.6c0,0-4.4,2.1-9.6,4.8v-2.3l4.4-2c0.6-0.2,0.6-0.7,0.1-1.1l-4.4-3v-1.5
		l4.1,3c0.4,0.2,0.6,0.4,0.7,0.5c0.1,0,0.4-0.1,0.7-0.2l9.6-4.1C136.7,19.7,136.7,19.4,136.3,19.1z M97.3,41.4
		c-2.1,1-4.3,1.9-5.8,2.7V19.7l5.7,4C97.3,30.5,97.3,34.6,97.3,41.4z M100.5,40.1V25.6l9,6.4c0.5,0.4,0.9,0.7,0.9,0.7
		c0.1,0.1,0.5-0.1,1.1-0.4l0.9-0.4l0.2,2.5C108.5,36.3,104.2,38.2,100.5,40.1z M119.3,31.4c-1.6,0.7-3.3,1.5-4.7,2.3v-2.4l4.8-2.1
		L119.3,31.4z M124.2,25.1c0.5,0.4,0.4,0.8-0.1,1l-12.5,5.2c-0.6,0.2-1.5,0.1-2-0.2L74.7,7c-0.5-0.4-0.4-0.7,0.2-0.7l18.9-0.8
		c0.6,0,1.6,0.2,2.1,0.6L124.2,25.1z M112.5,16.5c0-0.4,0-0.8,0-1.3C112.5,15.6,112.5,16,112.5,16.5L112.5,16.5z M114.5,17.7V16
		l5.1,3.6l-0.1,1.5L114.5,17.7z M135.4,19.7l-8.7,3.6c-0.4,0.1-1,0.1-1.3-0.1L101.3,6.5C100.9,6.2,101,6,101.4,6l13.1-0.6
		c0.4,0,1.1,0.1,1.4,0.4l19.6,13.1C135.9,19.2,135.8,19.5,135.4,19.7z"/>
	<path d="M118.5,13.9c-1.4,0.2-2.7,0.5-4.1,0.7c1.8,1.3,3.6,2.4,5.3,3.6c1.3-0.3,2.4-0.7,3.7-1C121.7,16.2,120.1,15.1,118.5,13.9z"
		/>
	<path d="M113,10.2c-1.5,0.1-3,0.3-4.4,0.4c1.8,1.3,3.6,2.4,5.3,3.6c1.4-0.2,2.7-0.4,4.1-0.7C116.3,12.5,114.6,11.4,113,10.2z"/>
	<path d="M116.3,9.5c-0.5-0.4-1-0.7-1.4-1c-1.2-0.8-2.3-1.6-3.5-2.4C111.3,6.1,111,6,110.9,6c-1,0-2.1,0.1-3.2,0.1
		c1.9,1.3,3.6,2.4,5.5,3.7C114.2,9.7,115.2,9.7,116.3,9.5z"/>
	<path d="M131.8,20.1c-1.6-1-3-2.1-4.6-3.1c-0.1-0.1-0.2-0.1-0.3-0.2c-0.9,0.2-1.7,0.4-2.6,0.7c1.9,1.3,3.6,2.4,5.5,3.7
		c0.7-0.3,1.3-0.5,2-0.7C132,20.3,132,20.2,131.8,20.1z"/>
	<path d="M134.6,19.1c-1.4-1-2.8-1.9-4.2-2.9c-0.1-0.1-0.2-0.1-0.3-0.2c-0.9,0.2-1.8,0.4-2.7,0.7c1.7,1.2,3.4,2.3,5.1,3.5
		c0.7-0.3,1.4-0.5,2.1-0.8C134.8,19.3,134.8,19.2,134.6,19.1z"/>
	<path d="M120.1,9.1c-1.6-1-3-2.1-4.6-3.1c-0.1-0.1-0.2-0.1-0.3-0.1c-1.1,0-2.2,0.1-3.4,0.1c1.7,1.2,3.3,2.3,5.1,3.5
		C117.9,9.4,119,9.2,120.1,9.1z"/>
	<path d="M126.2,16.6c0.3-0.1,0.3-0.1,0.1-0.3c-1.4-1-2.7-1.9-4.1-2.8c-0.1-0.1-0.2-0.1-0.3-0.2c-1,0.1-1.9,0.3-2.8,0.5
		c1.6,1.1,3.3,2.2,5,3.4C124.7,17,125.4,16.8,126.2,16.6z"/>
	<path d="M113.6,10.2c1.6,1.1,3.3,2.2,5,3.3c1-0.1,1.9-0.3,2.8-0.5c-1.6-1-3.1-2.1-4.7-3.2C115.6,9.9,114.7,10,113.6,10.2z"/>
	<path d="M127,16.4c0.9-0.2,1.8-0.4,2.7-0.7c-1.5-1-2.9-2-4.4-3c-1,0.1-1.9,0.4-3,0.5C123.9,14.2,125.5,15.3,127,16.4z"/>
	<path d="M121.9,12.9c1-0.1,1.9-0.4,2.9-0.5c-1.5-1-2.9-2-4.4-3c-1,0.1-2.1,0.2-3.2,0.4C118.9,10.8,120.4,11.9,121.9,12.9z"/>
</g>
<path d="M-66.7,37.8c-0.9,0-1.7,0.5-2.1,1.2c-0.3,0-0.7-0.1-1-0.2c-1.9-0.4-3.1-1-4.1-1.7c0,0-0.1-0.1-0.1-0.1
	c-0.9-0.7-1.6-1.7-2.5-2.8c0,0,0,0,0,0c-0.1-0.4-0.3-1.4,0.1-2.1c0,0,0.1-0.1,0.1-0.1c0.4,0.2,0.8,0.4,1.2,0.4c1.3,0,2.3-1,2.3-2.3
	c0-1.3-1-2.3-2.3-2.3c-1.2,0-2.1,0.9-2.3,2c-0.6,0.4-0.9,0.9-1.1,1.3c-0.2,0.4-0.4,0.9-0.4,1.4c-0.7-0.2-1.3-0.3-2-0.2
	c-0.4-0.5-1-0.8-1.7-0.8c-1.3,0-2.3,1-2.3,2.3c0,1.3,1,2.3,2.3,2.3c1,0,1.8-0.6,2.2-1.5c0.7,0,1.4,0.3,1.9,1l0.1,0.2
	c0.4,0.5,0.7,0.9,1.1,1.3c-1.3,0.3-2.2,0.9-2.9,1.6h0c-1.3,0-2.3,1-2.3,2.3c0,1.3,1,2.3,2.3,2.3c1.3,0,2.3-1.1,2.3-2.3
	c0-0.3-0.1-0.7-0.2-1c0.6-0.5,1.6-0.9,3.1-0.8c1.2,0.9,2.7,1.6,4.9,2.1c0.6,0.1,1.1,0.2,1.7,0.2c0.4,0.6,1.1,1,1.9,1
	c1.3,0,2.3-1.1,2.3-2.3C-64.4,38.9-65.5,37.8-66.7,37.8z M-75.2,28.9L-75.2,28.9c0.1,0,0.1,0,0.2,0c0.6,0.1,1,0.5,1,1.1
	c0,0.5-0.3,0.9-0.7,1c0,0,0,0,0,0c0,0-0.1,0-0.1,0c-0.1,0-0.2,0-0.2,0c-0.6,0-1.1-0.5-1.1-1.1C-76.3,29.4-75.8,28.9-75.2,28.9z
	 M-82.7,34.8c-0.6,0-1.1-0.5-1.1-1.1c0-0.6,0.5-1.1,1.1-1.1c0.6,0,1.1,0.5,1.1,1.1C-81.6,34.3-82.1,34.8-82.7,34.8z M-79.3,41.1
	C-79.3,41.2-79.3,41.2-79.3,41.1C-79.3,41.2-79.3,41.2-79.3,41.1c0,0.1,0,0.1-0.1,0.2c0,0,0,0,0,0c0,0,0,0.1,0,0.1c0,0,0,0,0,0
	c0,0,0,0,0,0c0,0.1,0,0.1-0.1,0.1c0,0,0,0.1-0.1,0.1c0,0.1-0.1,0.1-0.1,0.1c0,0,0,0,0,0c0,0,0,0,0,0c-0.2,0.1-0.4,0.2-0.6,0.2
	c0,0-0.1,0-0.1,0c-0.1,0-0.1,0-0.2,0c-0.5-0.1-0.9-0.6-0.9-1.1c0-0.6,0.5-1.1,1.1-1.1c0.6,0,1.1,0.5,1.1,1.1
	C-79.3,41-79.3,41.1-79.3,41.1z M-66.7,41.3c-0.6,0-1.1-0.5-1.1-1.1c0-0.4,0.3-0.8,0.6-1h0c0.2-0.1,0.3-0.1,0.5-0.1
	c0.4,0,0.8,0.3,1,0.7c0,0,0,0.1,0.1,0.1c0,0,0,0,0,0.1c0,0,0,0,0,0.1c0,0.1,0,0.1,0,0.2C-65.6,40.8-66.1,41.3-66.7,41.3z"/>
<path d="M-51.2,11.7c-6.5-1.8-7,0.6-8.7,0.6c-1.7,0-2.4-2.6-8.7-0.6C-82,15.5-92,28-92,42.7v5.9c0,1.7,1.4,3.1,3.1,3.1h58.1
	c1.7,0,3.1-1.4,3.1-3.1v-5.9C-27.7,27.9-37.7,15.5-51.2,11.7z M-32.5,42.7c0,1.1-0.9,2-2,2h-21.8c-1.1,0-2-0.9-2-2
	c0-0.1,0-5.9,0-5.9c0-0.9-0.7-1.6-1.6-1.6c-0.9,0-1.6,0.7-1.6,1.6v5.9c0,1.1-0.9,2-2,2h-21.8c-1.1,0-2-0.9-2-2
	c0-6.9,2.6-13.3,6.9-18.1c0.9-1,1.8-1.9,2.8-2.7c0.5,0.7,1.1,2.1,1.5,3.5c0.1,0.4,0.4,0.7,0.8,0.8c0.1,0,0.2,0.1,0.4,0.1
	c0.3,0,0.6-0.1,0.8-0.3c0.5-0.5,1.3-0.8,2.1-1.1c-0.2,0.9-0.2,2,0.1,3.5c0.6,2.2,2.5,3.5,4,4.1c0,0,0,0,0,0c0.2,1,1.2,1.8,2.3,1.8
	c1.3,0,2.3-1,2.3-2.3c0-1.3-1-2.3-2.3-2.3c-0.6,0-1.1,0.2-1.5,0.6c-1.1-0.5-2.2-1.3-2.5-2.5c-0.5-2,0.1-3.1,0.3-3.3
	c1.7-0.1,3.4,0,4.3,0.1c0.5,0.1,1-0.2,1.2-0.6c0.2-0.4,0.2-1-0.2-1.4c-0.5-0.6-0.8-1.1-0.9-1.7c0.7-0.4,1.1-1.1,1.1-2
	c0-1.3-1-2.3-2.3-2.3c-1.3,0-2.3,1-2.3,2.3c0,0.8,0.4,1.6,1.1,2c0.1,0.3,0.1,0.7,0.3,1.1c-2.1-0.1-5,0.1-7.2,1.2
	c-0.3-0.9-0.8-1.9-1.4-2.8c3.6-2.5,7.7-4.3,12.3-4.8c0,0,0.2,0,0.3,0c1,0,1.7,0.8,1.7,1.7v13.9c0,0.9,0.7,1.6,1.6,1.6
	s1.6-0.7,1.6-1.6v-8.3c0.6,0.4,1.4,0.8,2.3,1.1c0.1,0,0.3,0.1,0.4,0.1c-0.8,1.1-1.1,2.5-0.6,4c0.8,1.9,2.5,2.2,3.7,2.4
	c0.5,0.1,1.1,0.2,1.5,0.4c1.3,0.7,1.5,2,1.5,3c-0.1,1.1-0.5,2.3-1.1,3.1c-0.3-0.1-0.5-0.2-0.8-0.2c-1.3,0-2.3,1-2.3,2.3
	c0,1.3,1,2.3,2.3,2.3c1.3,0,2.3-1,2.3-2.3c0-0.1,0-0.1,0-0.2c0,0,0,0,0,0c1.2-1.2,2-3,2.1-4.9c0.1-2.4-0.9-4.3-2.8-5.2
	c-0.7-0.4-1.5-0.5-2.2-0.6c-1.2-0.2-1.6-0.3-1.8-0.9c-0.4-0.9,0.3-1.9,1-2.5c0.4,0,0.7,0,1,0c0.4,0,0.7,0,1,0c0.4,0.5,1,0.8,1.7,0.8
	c1.3,0,2.3-1.1,2.3-2.3c0-1.3-1-2.3-2.3-2.3c-1,0-1.8,0.6-2.2,1.5h0c-1,0.1-2.3,0-3.8-0.5c-1.6-0.6-2.5-1.5-3-2.3v-2.2
	c0-0.9,0.7-1.7,1.7-1.7h0.3c5.3,0.7,10,2.9,13.9,6.2c-1.1,0.1-2.2,0.5-3.1,1.3c-0.9,0.7-1.4,1.8-1.7,3c-0.8,0.4-1.3,1.2-1.3,2.1
	c0,1.3,1,2.3,2.3,2.3c1.3,0,2.3-1,2.3-2.3c0-0.7-0.4-1.4-0.9-1.8c0.1-0.6,0.4-1.1,0.8-1.5c1.2-1,3.4-0.8,4.2-0.6c0,0,0,0,0,0
	c1.3,1.4,2.5,3.1,3.5,4.8c-3.1-0.2-5.2,1.7-6,2.9c-0.2,0.3-0.3,0.7-0.1,1.1c0.3,0.9,0.7,3-0.2,5.1c-0.1,0.3-0.3,0.5-0.5,0.8
	c-0.3-0.1-0.5-0.1-0.8-0.1c-1.3,0-2.3,1-2.3,2.3c0,1.3,1.1,2.3,2.3,2.3c1.3,0,2.3-1.1,2.3-2.3c0-0.1,0-0.1,0-0.2
	c0.5-0.6,0.9-1.2,1.2-1.8c1.1-2.6,0.7-5,0.5-6.1c0.6-0.7,2.2-2,4.5-1.3c0.1,0,0.3,0,0.4,0C-33.4,34.9-32.5,38.7-32.5,42.7
	L-32.5,42.7L-32.5,42.7L-32.5,42.7z M-64.5,31.5c0,0,0,0.1,0,0.1c0,0,0,0.1,0,0.1c0,0,0,0.1,0,0.2V32c0,0,0,0,0,0v0.1c0,0,0,0,0,0.1
	c0,0,0,0,0,0c0,0,0,0,0,0c0,0.1-0.1,0.3-0.2,0.4c0,0,0,0-0.1,0.1c-0.1,0.1-0.1,0.1-0.2,0.2c-0.1,0-0.1,0.1-0.2,0.1c0,0,0,0,0,0
	c-0.1,0-0.1,0-0.2,0.1c-0.1,0-0.1,0-0.2,0c-0.6,0-1.1-0.5-1.1-1.1s0.5-1.1,1.1-1.1c0.4,0,0.7,0.2,0.9,0.5
	C-64.6,31.3-64.6,31.4-64.5,31.5C-64.5,31.5-64.5,31.5-64.5,31.5L-64.5,31.5C-64.5,31.5-64.5,31.5-64.5,31.5z M-67.3,18.9
	c0-0.6,0.5-1.1,1.1-1.1s1.1,0.5,1.1,1.1c0,0.1,0,0.2,0,0.2c-0.1,0.5-0.6,0.9-1.1,0.9C-66.8,20.1-67.3,19.6-67.3,18.9z M-50.4,39
	c0,0.6-0.5,1.1-1.1,1.1c-0.6,0-1.1-0.5-1.1-1.1c0-0.6,0.5-1.1,1.1-1.1S-50.4,38.4-50.4,39z M-49.2,24.2c-0.6,0-1.1-0.5-1.1-1.1
	c0-0.5,0.3-0.9,0.8-1.1h0c0.1,0,0.2-0.1,0.4-0.1c0.6,0,1.1,0.5,1.1,1.1c0,0.5-0.3,1-0.8,1.1c0,0,0,0-0.1,0
	C-49,24.2-49.1,24.2-49.2,24.2z M-45,28.1c0,0.3-0.1,0.6-0.3,0.8c0,0-0.1,0.1-0.1,0.1c-0.2,0.1-0.4,0.2-0.7,0.2
	c-0.6,0-1.1-0.5-1.1-1.1c0-0.1,0-0.2,0-0.3c0,0,0,0,0,0c0.1-0.5,0.6-0.8,1.1-0.8C-45.5,27-45,27.5-45,28.1z M-42.7,41
	c0,0.5-0.3,0.9-0.8,1.1c-0.1,0-0.2,0.1-0.4,0.1c-0.6,0-1.1-0.5-1.1-1.1c0-0.5,0.4-1,0.9-1.1c0.1,0,0.2,0,0.3,0
	C-43.2,39.8-42.7,40.3-42.7,41z"/>
<path d="M-139.9,36.2c2.1,0,2.7-1.1,4-1.8c-0.2-0.7-0.3-1.5-0.3-2.3c0-0.2,0-0.4,0-0.5c-1.1,0.7-1.7,1.6-3.7,1.6
	c-2.9,0-2.9-2.2-5.9-2.2c-2.9,0-2.9,2.2-5.9,2.2v2.9c2.9,0,2.9-2.2,5.9-2.2C-142.8,34-142.8,36.2-139.9,36.2z M-127.7,37
	c2.6,0,4.8-2.1,4.8-4.8c0-1.7-0.9-3.2-2.2-4v-2.2h8.1c0.8,0,1.5-0.7,1.5-1.5c0-0.8-0.7-1.5-1.5-1.5h-8.1v-4.4h8.1
	c0.8,0,1.5-0.7,1.5-1.5c0-0.8-0.7-1.5-1.5-1.5h-8.1v-4.4h8.1c0.8,0,1.5-0.7,1.5-1.5c0-0.8-0.7-1.5-1.5-1.5h-8.1V3.8h0
	c-0.2-1.2-1.2-2.2-2.5-2.2c-1.3,0-2.4,1-2.5,2.2h0v24.3c-1.3,0.9-2.2,2.3-2.2,4C-132.5,34.8-130.4,37-127.7,37z M-115.6,40.6
	c-2.9,0-2.9-2.2-5.9-2.2c-2.8,0-3,2.1-6.3,2.2c-3.3-0.1-3.4-2.2-6.3-2.2c-2.9,0-2.9,2.2-5.9,2.2c-2.9,0-2.9-2.2-5.9-2.2
	c-1.5,0-2.2,0.6-2.9,1.1v2.9c0.7-0.6,1.5-1.1,2.9-1.1c2.9,0,2.9,2.2,5.9,2.2c2.9,0,2.9-2.2,5.9-2.2c2.7,0,2.9,1.9,5.9,2.2v0
	c0.1,0,0.2,0,0.4,0c0.1,0,0.2,0,0.4,0v0c3-0.3,3.2-2.2,5.9-2.2c2.9,0,2.9,2.2,5.9,2.2c2.9,0,2.9-2.2,5.9-2.2c1.5,0,2.2,0.6,2.9,1.1
	v-2.9c-0.7-0.6-1.5-1.1-2.9-1.1C-112.6,38.4-112.6,40.6-115.6,40.6z M-109.7,31.1c-2.9,0-2.9,2.2-5.9,2.2c-2,0-2.6-1-3.7-1.6
	c0,0.2,0,0.4,0,0.5c0,0.8-0.1,1.5-0.3,2.3c1.3,0.6,1.9,1.8,4,1.8c2.9,0,2.9-2.2,5.9-2.2c2.9,0,2.9,2.2,5.9,2.2v-2.9
	C-106.7,33.3-106.7,31.1-109.7,31.1z"/>
<path d="M12.1,8.4c-1.7-1.7,0.8-4.1,2.5-2.5c4.4,4.4,11.6,4.4,16,0c1.7-1.7,4.2,0.8,2.5,2.5l0,0C27.3,14.3,17.9,14.2,12.1,8.4
	L12.1,8.4z M16.8,3.8c-1.6-1.7,0.8-4.1,2.5-2.5c1.8,1.8,4.9,1.9,6.7,0c1.7-1.7,4.2,0.8,2.5,2.5l0,0C25.2,7,20,7,16.8,3.8L16.8,3.8z
	 M21.4-0.8c-0.7-0.7-0.7-1.7,0-2.4c0.7-0.7,1.7-0.7,2.4,0c0.7,0.7,0.7,1.7,0,2.4C23.1-0.1,22.1-0.1,21.4-0.8L21.4-0.8z M7.3,13.2
	c-1.7-1.7,0.8-4.1,2.5-2.5c7.1,7.1,18.5,7.1,25.6,0l0,0c1.7-1.7,4.1,0.8,2.5,2.5l0,0C29.4,21.7,15.7,21.6,7.3,13.2L7.3,13.2z
	 M14.9,49.5c0,3.8-3.1,6.8-6.8,6.8c-3.8,0-6.8-3.1-6.8-6.8c0-3.8,3.1-6.8,6.8-6.8C11.9,42.7,14.9,45.7,14.9,49.5L14.9,49.5z
	 M11.4,49.5c0-1.8-1.5-3.3-3.3-3.3s-3.3,1.5-3.3,3.3c0,1.8,1.5,3.3,3.3,3.3C9.9,52.8,11.4,51.3,11.4,49.5L11.4,49.5z M56.4,47.9
	h-3.4c-0.7-4.3-4.5-7.6-9-7.6c-4.5,0-8.3,3.3-9,7.6H17.1c-0.7-4.3-4.5-7.6-9-7.6c-4.5,0-8.3,3.3-9,7.6h-4.3c-0.6,0-1.2-0.5-1.2-1.2
	v-3.1c0-0.6,0.5-1.2,1.2-1.2l2,0v-1.4c0-4.3,3.5-7.8,7.8-7.8h0.8l6-8.4c1.1-1.4,2.1-2,3.7-2h16.4c1.6,0,2.6,0.5,3.7,2l6,8.4h10.1
	c1.7,0,3.1,1.4,3.1,3.1v6l2.1,0c0.6,0,1.2,0.5,1.2,1.2v3.1C57.6,47.4,57,47.9,56.4,47.9L56.4,47.9z M20.1,33.3
	c0.6,0,1.2-0.5,1.2-1.2v-5.3c0-0.6-0.5-1.2-1.2-1.2l-3.7,0c-0.7,0-0.9,0.1-1.5,0.8l-4,5.7c-0.5,0.6-0.3,1.2,0.3,1.2H20.1z
	 M32.6,26.5c-0.6-0.8-0.8-0.8-1.5-0.8l-6,0c-0.6,0-1.2,0.5-1.2,1.2v5.3c0,0.6,0.5,1.2,1.2,1.2h11.1c0.6,0,0.8-0.5,0.3-1.2L32.6,26.5
	L32.6,26.5z M26.5,35.5c-0.2-0.2-0.5-0.4-0.9-0.4c-1.6,0-1.6,2.3,0,2.3c0.4,0,0.7-0.2,0.9-0.4h2.8c1,0,1-1.6,0-1.6H26.5L26.5,35.5z
	 M47.2,49.5c0-1.8-1.5-3.3-3.3-3.3c-1.8,0-3.3,1.5-3.3,3.3c0,1.8,1.5,3.3,3.3,3.3C45.7,52.8,47.2,51.3,47.2,49.5L47.2,49.5z
	 M50.7,49.5c0,3.8-3.1,6.8-6.8,6.8c-3.8,0-6.8-3.1-6.8-6.8c0-3.8,3.1-6.8,6.8-6.8C47.7,42.7,50.7,45.7,50.7,49.5L50.7,49.5z"/>
</svg>
