<?xml version="1.0" encoding="utf-8"?>
<!-- Generator: Adobe Illustrator 18.0.0, SVG Export Plug-In . SVG Version: 6.00 Build 0)  -->
<!DOCTYPE svg PUBLIC "-//W3C//DTD SVG 1.1//EN" "http://www.w3.org/Graphics/SVG/1.1/DTD/svg11.dtd">
<svg version="1.1" id="Layer_1" xmlns="http://www.w3.org/2000/svg" xmlns:xlink="http://www.w3.org/1999/xlink" x="0px" y="0px"
	 viewBox="14.5 -0.9 73.8 69.2" enable-background="new 14.5 -0.9 73.8 69.2" xml:space="preserve">
<path d="M35.8,13.2c-1.9-1.9,1-4.8,2.9-2.9c5.1,5.1,13.4,5.1,18.5,0c1.9-1.9,4.8,0.9,2.9,2.8l0,0C53.3,19.9,42.5,19.9,35.8,13.2
	L35.8,13.2z M41.2,7.8c-1.9-1.9,1-4.8,2.9-2.9c2.1,2.1,5.6,2.2,7.7,0c1.9-1.9,4.8,0.9,2.9,2.8l0,0C50.9,11.5,44.9,11.5,41.2,7.8
	L41.2,7.8z M46.5,2.5c-0.8-0.8-0.8-2,0-2.8s2-0.8,2.8,0c0.8,0.8,0.8,2,0,2.8C48.5,3.3,47.3,3.3,46.5,2.5L46.5,2.5z M30.3,18.7
	c-1.9-1.9,1-4.8,2.9-2.9c8.1,8.1,21.4,8.2,29.5,0l0,0c1.9-1.9,4.8,0.9,2.9,2.9l0,0C55.8,28.4,40,28.4,30.3,18.7L30.3,18.7z M39,60.5
	c0,4.3-3.5,7.9-7.9,7.9c-4.3,0-7.9-3.5-7.9-7.9s3.5-7.9,7.9-7.9C35.5,52.6,39,56.2,39,60.5L39,60.5z M35,60.5c0-2.1-1.7-3.9-3.9-3.9
	c-2.1,0-3.8,1.7-3.8,3.9c0,2.1,1.7,3.9,3.8,3.9C33.3,64.4,35,62.6,35,60.5L35,60.5z M86.9,58.8h-4c-0.8-5-5.2-8.8-10.4-8.8
	c-5.2,0-9.6,3.8-10.4,8.8H41.6c-0.8-5-5.2-8.8-10.4-8.8c-5.2,0-9.6,3.8-10.4,8.8h-4.9c-0.7,0-1.4-0.6-1.4-1.4v-3.6
	c0-0.7,0.6-1.4,1.4-1.4l2.3,0v-1.6c0-5,4-9,9-9H28l6.9-9.7c1.2-1.6,2.4-2.3,4.2-2.3h18.9c1.9,0,3,0.6,4.2,2.3l6.9,9.7h11.7
	c2,0,3.6,1.6,3.6,3.6v7l2.4,0c0.7,0,1.4,0.6,1.4,1.4v3.6C88.2,58.2,87.6,58.8,86.9,58.8L86.9,58.8z M45,41.9c0.7,0,1.4-0.6,1.4-1.4
	v-6.1c0-0.7-0.6-1.4-1.4-1.4l-4.3,0c-0.8,0-1,0.1-1.7,1l-4.6,6.5c-0.5,0.7-0.3,1.4,0.4,1.4H45z M59.4,34c-0.7-0.9-1-1-1.7-1l-6.9,0
	c-0.7,0-1.4,0.6-1.4,1.4v6.1c0,0.7,0.6,1.4,1.4,1.4h12.9c0.7,0,0.9-0.6,0.4-1.4L59.4,34L59.4,34z M52.5,44.4c-0.2-0.3-0.6-0.4-1-0.4
	c-1.8,0-1.8,2.7,0,2.7c0.5,0,0.8-0.2,1-0.4h3.3c1.2,0,1.2-1.8,0-1.8L52.5,44.4L52.5,44.4z M76.3,60.5c0-2.1-1.7-3.9-3.8-3.9
	c-2.1,0-3.9,1.7-3.9,3.9c0,2.1,1.7,3.9,3.9,3.9C74.6,64.4,76.3,62.6,76.3,60.5L76.3,60.5z M80.4,60.5c0,4.3-3.5,7.9-7.9,7.9
	c-4.4,0-7.9-3.5-7.9-7.9s3.5-7.9,7.9-7.9C76.8,52.6,80.4,56.2,80.4,60.5L80.4,60.5z"/>
</svg>
