<?xml version="1.0" encoding="utf-8"?>
<!-- Generator: Adobe Illustrator 18.0.0, SVG Export Plug-In . SVG Version: 6.00 Build 0)  -->
<!DOCTYPE svg PUBLIC "-//W3C//DTD SVG 1.1//EN" "http://www.w3.org/Graphics/SVG/1.1/DTD/svg11.dtd">
<svg version="1.1" id="Layer_1" xmlns="http://www.w3.org/2000/svg" xmlns:xlink="http://www.w3.org/1999/xlink" x="0px" y="0px"
	 viewBox="0 0 100 82.4" enable-background="new 0 0 100 82.4" xml:space="preserve">
<path d="M90.7,27.1c-3.1,0-5.7,2.5-5.7,5.7c0,3.1,2.5,5.7,5.7,5.7c3.1,0,5.7-2.5,5.7-5.7C96.4,29.7,93.8,27.1,90.7,27.1z"/>
<path d="M9.3,27.1c-3.1,0-5.7,2.5-5.7,5.7c0,3.1,2.5,5.7,5.7,5.7c3.1,0,5.7-2.5,5.7-5.7C15,29.7,12.4,27.1,9.3,27.1z"/>
<path d="M73.9,16.8c-4.6,0-8.4,3.8-8.4,8.4c0,4.6,3.8,8.4,8.4,8.4c4.6,0,8.4-3.8,8.4-8.4C82.3,20.6,78.5,16.8,73.9,16.8z"/>
<path d="M100,68.1h-9.6V50.4c0-3-0.9-5.9-2.3-8.3c0.8-0.2,1.7-0.4,2.6-0.4c5.1,0,9.3,4.2,9.3,9.3V68.1z"/>
<path d="M26.1,16.8c-4.6,0-8.4,3.8-8.4,8.4c0,4.6,3.8,8.4,8.4,8.4c4.6,0,8.4-3.8,8.4-8.4C34.6,20.6,30.8,16.8,26.1,16.8z"/>
<path d="M9.3,41.7c0.9,0,1.8,0.2,2.6,0.4c-1.4,2.5-2.3,5.3-2.3,8.3v17.7H0V51C0,45.9,4.2,41.7,9.3,41.7z"/>
<path d="M50,0c-6.9,0-12.5,5.6-12.5,12.5c0,6.9,5.6,12.5,12.5,12.5s12.5-5.6,12.5-12.5C62.5,5.6,56.9,0,50,0z"/>
<path d="M87.3,74.6H72.6V47.8c0-3.7-1-7.1-2.6-10.2c1.2-0.4,2.5-0.6,3.8-0.6c7.4,0,13.5,6,13.5,13.5V74.6z"/>
<path d="M27.4,47.8v26.9H12.7V50.4c0-7.4,6-13.5,13.5-13.5c1.3,0,2.6,0.3,3.8,0.6C28.4,40.6,27.4,44.1,27.4,47.8z"/>
<path d="M30.5,82.4h39.1V47.8c0-10.8-8.8-19.5-19.5-19.5c-10.8,0-19.5,8.8-19.5,19.5V82.4z"/>
</svg>
