<?xml version="1.0" encoding="utf-8"?>
<!-- Generator: Adobe Illustrator 18.0.0, SVG Export Plug-In . SVG Version: 6.00 Build 0)  -->
<!DOCTYPE svg PUBLIC "-//W3C//DTD SVG 1.1//EN" "http://www.w3.org/Graphics/SVG/1.1/DTD/svg11.dtd">
<svg version="1.1" id="Layer_1" xmlns="http://www.w3.org/2000/svg" xmlns:xlink="http://www.w3.org/1999/xlink" x="0px" y="0px"
	 viewBox="16.3 -0.6 70 70" enable-background="new 16.3 -0.6 70 70" xml:space="preserve">
<path d="M67.3,8.5c-7.2,0-13.3,4.3-16,10.5c-2.7-6.2-8.8-10.5-16-10.5c-9.6,0-17.5,7.8-17.5,17.5c0,5.7,2.8,10.8,7.1,14l26.4,20.4
	l26.4-20.4c4.3-3.2,7.1-8.2,7.1-14C84.8,16.3,76.9,8.5,67.3,8.5z M67.8,36.7h-9.2l-2.6-6.9l-5.6,17.3l-5.6-12.6l-0.6,1.6h-9.5v-2.6
	h7.6l2.1-6.1L50,39.8l5.8-18l4.6,12.3h7.4L67.8,36.7L67.8,36.7z"/>
</svg>
