<?xml version="1.0" encoding="utf-8"?>
<!-- Generator: Adobe Illustrator 18.0.0, SVG Export Plug-In . SVG Version: 6.00 Build 0)  -->
<!DOCTYPE svg PUBLIC "-//W3C//DTD SVG 1.1//EN" "http://www.w3.org/Graphics/SVG/1.1/DTD/svg11.dtd">
<svg version="1.1" id="Layer_1" xmlns="http://www.w3.org/2000/svg" xmlns:xlink="http://www.w3.org/1999/xlink" x="0px" y="0px"
	 viewBox="129.2 323.1 800 303.4" enable-background="new 129.2 323.1 800 303.4" xml:space="preserve">
<path d="M386.6,339.8c-37.4,0-69.2,22.4-83.2,54.6c-14-32.2-45.8-54.6-83.2-54.6c-49.9,0-91,40.6-91,91c0,29.7,14.6,56.2,37,72.8
	l137.3,106.1l137.3-106.1c22.4-16.6,37-42.7,37-72.8C477.7,380.4,436.6,339.8,386.6,339.8z M389.3,486.5h-47.9l-13.5-35.9l-29.1,90
	l-29.1-65.5l-3.1,8.3h-49.5v-13.5h39.5l10.9-31.7l29.1,64.5l30.2-93.6l23.9,64h38.5L389.3,486.5L389.3,486.5z"/>
<g id="Your_Icon">
	<path d="M745.7,386.4h79.9l7.4-10.3c6.1-9,12.7-17.6,18.4-26.6c2.9-4.5,7.8-11.5,5.8-17.2c-1.2-4.1-4.9-5.3-9-6.1
		c-2.9-0.4-17.2-4.1-22.9-2.9c-5.3,1.2-9.8,3.7-14.7,5.3c-7,2.5-14.7,4.5-22.5,4.1c-6.6-0.4-14.3-1.2-20.5-3.3
		c-5.3-2.1-10.3-4.5-15.6-5.8c-4.9-0.8-22.2,1.6-25.4,2.1c-24.2,4.1-6.6,22.9,12.3,50.4L745.7,386.4z M921.9,532.7
		c-20.5-47.1-57.8-98.7-96.7-123.7h-80.7c-38.5,25-75.8,76.2-96.3,123.7s4.1,93.8,51.2,93.8h171.7
		C917.8,626.5,942.4,579.9,921.9,532.7z M792.4,575.3v19.2h-15.2v-18c-11.9-0.4-23.4-3.7-30.3-8.2l4.9-17.6
		c7.4,4.1,17.6,8.2,29.1,8.2c11.9,0,19.7-5.8,19.7-14.7c0-8.2-6.6-14-20.5-18.9c-19.7-7-32.3-16-32.3-33.2c0-16,11-28.3,29.9-31.6
		v-18.4h15.2v17.2c11.9,0.4,19.7,3.3,25.8,6.1l-4.9,17.2c-4.5-2.1-12.7-6.1-25.4-6.1c-13.1,0-17.6,6.6-17.6,13.1
		c0,7.8,6.6,11.9,22.5,18.4c20.9,7.8,30.3,18,30.3,34.4C824,558.1,812.9,572,792.4,575.3z"/>
</g>
</svg>
