<?xml version="1.0" encoding="utf-8"?>
<!-- Generator: Adobe Illustrator 18.0.0, SVG Export Plug-In . SVG Version: 6.00 Build 0)  -->
<!DOCTYPE svg PUBLIC "-//W3C//DTD SVG 1.1//EN" "http://www.w3.org/Graphics/SVG/1.1/DTD/svg11.dtd">
<svg version="1.1" id="Layer_1" xmlns="http://www.w3.org/2000/svg" xmlns:xlink="http://www.w3.org/1999/xlink" x="0px" y="0px"
	 viewBox="-336.9 253 75 75" enable-background="new -336.9 253 75 75" xml:space="preserve">
<g id="Layer_2">
	<path d="M-265.8,271c-0.5-1.6-1.9-2.6-3.5-2.6c-0.4,0-0.7,0.1-1.1,0.2l-5.1,1.6v-12c0-3-1.8-4.7-4.6-4.7h-22.1
		c-2.8,0-4.8,1.7-4.8,4.7v22.9c-2.6,1.1-4.4,1.9-4.8,2.1c-3.1,1.6-5.5,5.2-6,6.7c-0.6,1.5-15.2,37.6-15.2,37.6h30.1
		c0,0,7.3-3.1,11.2-7.3c1.6-1.8,2.9-4.2,3.8-6.2h8c2.5,0,4.4-1.6,4.4-4.8v-2.7h3.2c2,0,3.7-1.7,3.7-3.7c0-2-1.7-3.7-3.7-3.7h-3.2
		v-1.2h3.3c2,0,3.7-1.7,3.7-3.7c0-2-1.7-3.7-3.7-3.7h-3.3v-1.2h3.3c2,0,3.7-1.7,3.7-3.7c0-2-1.7-3.7-3.7-3.7h-3.3v-3.9l7.3-2.3
		c0.9-0.3,1.7-0.9,2.2-1.8C-265.6,272.9-265.5,271.9-265.8,271z M-291.4,310.9c-0.9,0-1.6-0.7-1.6-1.6c0-0.9,0.7-1.6,1.6-1.6
		c0.9,0,1.6,0.7,1.6,1.6C-289.8,310.2-290.5,310.9-291.4,310.9z M-278.9,305.5h-18.8c0,1.8-0.2,4.3-0.8,6.9
		c-1.4,5.3-5.9,8.3-6.1,8.4c-0.2,0.1-0.4,0.2-0.6,0.2c-0.3,0-0.7-0.2-0.9-0.5c-0.3-0.5-0.2-1.1,0.3-1.5c0,0,4-2.7,5.2-7.1
		c1.2-4.7,0.6-9,0.6-9c0-0.1,0-0.2,0-0.3h12.1c2.5,0,4.9-1.5,4.9-4.4s-2.2-4.8-4.9-4.8h-20.5v-2.1h4.6v-29.8h25L-278.9,305.5
		L-278.9,305.5L-278.9,305.5z"/>
</g>
</svg>
