<?xml version="1.0" encoding="utf-8"?>
<!-- Generator: Adobe Illustrator 18.0.0, SVG Export Plug-In . SVG Version: 6.00 Build 0)  -->
<!DOCTYPE svg PUBLIC "-//W3C//DTD SVG 1.1//EN" "http://www.w3.org/Graphics/SVG/1.1/DTD/svg11.dtd">
<svg version="1.1" id="Layer_1" xmlns="http://www.w3.org/2000/svg" xmlns:xlink="http://www.w3.org/1999/xlink" x="0px" y="0px"
	 viewBox="13.8 -3.1 75 75" enable-background="new 13.8 -3.1 75 75" xml:space="preserve">
<g id="Captions">
</g>
<g id="Your_Icon">
	<path d="M41.7,12.9h19.5l1.8-2.5c1.5-2.2,3.1-4.3,4.5-6.5c0.7-1.1,1.9-2.8,1.4-4.2c-0.3-1-1.2-1.3-2.2-1.5c-0.7-0.1-4.2-1-5.6-0.7
		c-1.3,0.3-2.4,0.9-3.6,1.3c-1.7,0.6-3.6,1.1-5.5,1c-1.6-0.1-3.5-0.3-5-0.8c-1.3-0.5-2.5-1.1-3.8-1.4c-1.2-0.2-5.4,0.4-6.2,0.5
		c-5.9,1-1.6,5.6,3,12.3L41.7,12.9z M84.7,48.6c-5-11.5-14.1-24.1-23.6-30.2H41.4C32,24.5,22.9,37,17.9,48.6
		c-5,11.6,1,22.9,12.5,22.9h41.9C83.7,71.5,89.7,60.1,84.7,48.6z M53.1,59v4.7h-3.7v-4.4c-2.9-0.1-5.7-0.9-7.4-2l1.2-4.3
		c1.8,1,4.3,2,7.1,2c2.9,0,4.8-1.4,4.8-3.6c0-2-1.6-3.4-5-4.6c-4.8-1.7-7.9-3.9-7.9-8.1c0-3.9,2.7-6.9,7.3-7.7v-4.5h3.7v4.2
		c2.9,0.1,4.8,0.8,6.3,1.5l-1.2,4.2c-1.1-0.5-3.1-1.5-6.2-1.5c-3.2,0-4.3,1.6-4.3,3.2c0,1.9,1.6,2.9,5.5,4.5
		c5.1,1.9,7.4,4.4,7.4,8.4C60.8,54.8,58.1,58.2,53.1,59z"/>
</g>
</svg>
