<?xml version="1.0" encoding="utf-8"?>
<!-- Generator: Adobe Illustrator 18.0.0, SVG Export Plug-In . SVG Version: 6.00 Build 0)  -->
<!DOCTYPE svg PUBLIC "-//W3C//DTD SVG 1.1//EN" "http://www.w3.org/Graphics/SVG/1.1/DTD/svg11.dtd">
<svg version="1.1" id="Your_Icon" xmlns="http://www.w3.org/2000/svg" xmlns:xlink="http://www.w3.org/1999/xlink" x="0px" y="0px"
	 viewBox="19.2 14.1 64.3 40.7" enable-background="new 19.2 14.1 64.3 40.7" xml:space="preserve">
<path d="M44.4,41c-0.9,0-1.7,0.5-2.1,1.2c-0.3,0-0.7-0.1-1-0.2c-1.9-0.4-3.1-1-4.1-1.7c0,0-0.1-0.1-0.1-0.1
	c-0.9-0.7-1.6-1.7-2.5-2.8c0,0,0,0,0,0c-0.1-0.4-0.3-1.4,0.1-2.1c0,0,0.1-0.1,0.1-0.1c0.4,0.2,0.8,0.4,1.2,0.4c1.3,0,2.3-1,2.3-2.3
	c0-1.3-1-2.3-2.3-2.3c-1.2,0-2.1,0.9-2.3,2c-0.6,0.4-0.9,0.9-1.1,1.3c-0.2,0.4-0.4,0.9-0.4,1.4c-0.7-0.2-1.3-0.3-2-0.2
	c-0.4-0.5-1-0.8-1.7-0.8c-1.3,0-2.3,1-2.3,2.3c0,1.3,1,2.3,2.3,2.3c1,0,1.8-0.6,2.2-1.5c0.7,0,1.4,0.3,1.9,1l0.1,0.2
	c0.4,0.5,0.7,0.9,1.1,1.3c-1.3,0.3-2.2,0.9-2.9,1.6h0c-1.3,0-2.3,1-2.3,2.3c0,1.3,1,2.3,2.3,2.3c1.3,0,2.3-1.1,2.3-2.3
	c0-0.3-0.1-0.7-0.2-1c0.6-0.5,1.6-0.9,3.1-0.8c1.2,0.9,2.7,1.6,4.9,2.1c0.6,0.1,1.1,0.2,1.7,0.2c0.4,0.6,1.1,1,1.9,1
	c1.3,0,2.3-1.1,2.3-2.3C46.7,42,45.7,41,44.4,41z M36,32L36,32c0.1,0,0.1,0,0.2,0c0.6,0.1,1,0.5,1,1.1c0,0.5-0.3,0.9-0.7,1
	c0,0,0,0,0,0c0,0-0.1,0-0.1,0c-0.1,0-0.2,0-0.2,0c-0.6,0-1.1-0.5-1.1-1.1C34.9,32.5,35.4,32,36,32z M28.4,37.9
	c-0.6,0-1.1-0.5-1.1-1.1c0-0.6,0.5-1.1,1.1-1.1c0.6,0,1.1,0.5,1.1,1.1C29.5,37.4,29,37.9,28.4,37.9z M31.8,44.2
	C31.8,44.3,31.8,44.3,31.8,44.2C31.8,44.3,31.8,44.3,31.8,44.2c0,0.1,0,0.1-0.1,0.2c0,0,0,0,0,0c0,0,0,0.1,0,0.1c0,0,0,0,0,0
	c0,0,0,0,0,0c0,0.1,0,0.1-0.1,0.1c0,0,0,0.1-0.1,0.1c0,0.1-0.1,0.1-0.1,0.1c0,0,0,0,0,0c0,0,0,0,0,0c-0.2,0.1-0.4,0.2-0.6,0.2
	c0,0-0.1,0-0.1,0c-0.1,0-0.1,0-0.2,0c-0.5-0.1-0.9-0.6-0.9-1.1c0-0.6,0.5-1.1,1.1-1.1c0.6,0,1.1,0.5,1.1,1.1
	C31.9,44.1,31.9,44.2,31.8,44.2z M44.4,44.4c-0.6,0-1.1-0.5-1.1-1.1c0-0.4,0.3-0.8,0.6-1h0c0.2-0.1,0.3-0.1,0.5-0.1
	c0.4,0,0.8,0.3,1,0.7c0,0,0,0.1,0.1,0.1c0,0,0,0,0,0.1c0,0,0,0,0,0.1c0,0.1,0,0.1,0,0.2C45.5,43.9,45,44.4,44.4,44.4z"/>
<path d="M60,14.8c-6.5-1.8-7,0.6-8.7,0.6c-1.7,0-2.4-2.6-8.7-0.6c-13.5,3.8-23.4,16.2-23.4,30.9v5.9c0,1.7,1.4,3.1,3.1,3.1h58.1
	c1.7,0,3.1-1.4,3.1-3.1v-5.9C83.4,31,73.5,18.6,60,14.8z M78.6,45.8c0,1.1-0.9,2-2,2H54.8c-1.1,0-2-0.9-2-2c0-0.1,0-5.9,0-5.9
	c0-0.9-0.7-1.6-1.6-1.6c-0.9,0-1.6,0.7-1.6,1.6v5.9c0,1.1-0.9,2-2,2H25.9c-1.1,0-2-0.9-2-2c0-6.9,2.6-13.3,6.9-18.1
	c0.9-1,1.8-1.9,2.8-2.7c0.5,0.7,1.1,2.1,1.5,3.5c0.1,0.4,0.4,0.7,0.8,0.8c0.1,0,0.2,0.1,0.4,0.1c0.3,0,0.6-0.1,0.8-0.3
	c0.5-0.5,1.3-0.8,2.1-1.1c-0.2,0.9-0.2,2,0.1,3.5c0.6,2.2,2.5,3.5,4,4.1c0,0,0,0,0,0c0.2,1,1.2,1.8,2.3,1.8c1.3,0,2.3-1,2.3-2.3
	c0-1.3-1-2.3-2.3-2.3c-0.6,0-1.1,0.2-1.5,0.6c-1.1-0.5-2.2-1.3-2.5-2.5c-0.5-2,0.1-3.1,0.3-3.3c1.7-0.1,3.4,0,4.3,0.1
	c0.5,0.1,1-0.2,1.2-0.6c0.2-0.4,0.2-1-0.2-1.4c-0.5-0.6-0.8-1.1-0.9-1.7c0.7-0.4,1.1-1.1,1.1-2c0-1.3-1-2.3-2.3-2.3
	c-1.3,0-2.3,1-2.3,2.3c0,0.8,0.4,1.6,1.1,2c0.1,0.3,0.1,0.7,0.3,1.1c-2.1-0.1-5,0.1-7.2,1.2c-0.3-0.9-0.8-1.9-1.4-2.8
	c3.6-2.5,7.7-4.3,12.3-4.8c0,0,0.2,0,0.3,0c1,0,1.7,0.8,1.7,1.7v13.9c0,0.9,0.7,1.6,1.6,1.6c0.9,0,1.6-0.7,1.6-1.6v-8.3
	c0.6,0.4,1.4,0.8,2.3,1.1c0.1,0,0.3,0.1,0.4,0.1c-0.8,1.1-1.1,2.5-0.6,4c0.8,1.9,2.5,2.2,3.7,2.4c0.5,0.1,1.1,0.2,1.5,0.4
	c1.3,0.7,1.5,2,1.5,3c-0.1,1.1-0.5,2.3-1.1,3.1c-0.3-0.1-0.5-0.2-0.8-0.2c-1.3,0-2.3,1-2.3,2.3c0,1.3,1,2.3,2.3,2.3
	c1.3,0,2.3-1,2.3-2.3c0-0.1,0-0.1,0-0.2c0,0,0,0,0,0c1.2-1.2,2-3,2.1-4.9c0.1-2.4-0.9-4.3-2.8-5.2c-0.7-0.4-1.5-0.5-2.2-0.6
	c-1.2-0.2-1.6-0.3-1.8-0.9c-0.4-0.9,0.3-1.9,1-2.5c0.4,0,0.7,0,1,0c0.4,0,0.7,0,1,0c0.4,0.5,1,0.8,1.7,0.8c1.3,0,2.3-1.1,2.3-2.3
	c0-1.3-1-2.3-2.3-2.3c-1,0-1.8,0.6-2.2,1.5h0c-1,0.1-2.3,0-3.8-0.5c-1.6-0.6-2.5-1.5-3-2.3v-2.2c0-0.9,0.7-1.7,1.7-1.7h0.3
	c5.3,0.7,10,2.9,13.9,6.2c-1.1,0.1-2.2,0.5-3.1,1.3c-0.9,0.7-1.4,1.8-1.7,3c-0.8,0.4-1.3,1.2-1.3,2.1c0,1.3,1,2.3,2.3,2.3
	c1.3,0,2.3-1,2.3-2.3c0-0.7-0.4-1.4-0.9-1.8c0.1-0.6,0.4-1.1,0.8-1.5c1.2-1,3.4-0.8,4.2-0.6c0,0,0,0,0,0c1.3,1.4,2.5,3.1,3.5,4.8
	c-3.1-0.2-5.2,1.7-6,2.9c-0.2,0.3-0.3,0.7-0.1,1.1c0.3,0.9,0.7,3-0.2,5.1c-0.1,0.3-0.3,0.5-0.5,0.8c-0.3-0.1-0.5-0.1-0.8-0.1
	c-1.3,0-2.3,1-2.3,2.3c0,1.3,1.1,2.3,2.3,2.3c1.3,0,2.3-1.1,2.3-2.3c0-0.1,0-0.1,0-0.2c0.5-0.6,0.9-1.2,1.2-1.8
	c1.1-2.6,0.7-5,0.5-6.1c0.6-0.7,2.2-2,4.5-1.3c0.1,0,0.3,0,0.4,0C77.8,38,78.6,41.8,78.6,45.8L78.6,45.8L78.6,45.8L78.6,45.8z
	 M46.6,34.6c0,0,0,0.1,0,0.1c0,0,0,0.1,0,0.1c0,0,0,0.1,0,0.2v0.1c0,0,0,0,0,0v0.1c0,0,0,0,0,0.1c0,0,0,0,0,0c0,0,0,0,0,0
	c0,0.1-0.1,0.3-0.2,0.4c0,0,0,0-0.1,0.1c-0.1,0.1-0.1,0.1-0.2,0.2c-0.1,0-0.1,0.1-0.2,0.1c0,0,0,0,0,0c-0.1,0-0.1,0-0.2,0.1
	c-0.1,0-0.1,0-0.2,0c-0.6,0-1.1-0.5-1.1-1.1s0.5-1.1,1.1-1.1c0.4,0,0.7,0.2,0.9,0.5C46.6,34.5,46.6,34.5,46.6,34.6
	C46.6,34.6,46.6,34.6,46.6,34.6L46.6,34.6C46.6,34.6,46.6,34.6,46.6,34.6z M43.9,22c0-0.6,0.5-1.1,1.1-1.1s1.1,0.5,1.1,1.1
	c0,0.1,0,0.2,0,0.2c-0.1,0.5-0.6,0.9-1.1,0.9C44.4,23.2,43.9,22.7,43.9,22z M60.7,42.1c0,0.6-0.5,1.1-1.1,1.1
	c-0.6,0-1.1-0.5-1.1-1.1S59,41,59.6,41C60.2,41,60.7,41.5,60.7,42.1z M61.9,27.3c-0.6,0-1.1-0.5-1.1-1.1c0-0.5,0.3-0.9,0.8-1.1h0
	c0.1,0,0.2-0.1,0.4-0.1c0.6,0,1.1,0.5,1.1,1.1c0,0.5-0.3,1-0.8,1.1c0,0,0,0-0.1,0C62.1,27.3,62,27.3,61.9,27.3z M66.1,31.2
	c0,0.3-0.1,0.6-0.3,0.8c0,0-0.1,0.1-0.1,0.1c-0.2,0.1-0.4,0.2-0.7,0.2c-0.6,0-1.1-0.5-1.1-1.1c0-0.1,0-0.2,0-0.3c0,0,0,0,0,0
	c0.1-0.5,0.6-0.8,1.1-0.8C65.6,30.1,66.1,30.6,66.1,31.2z M68.4,44.1c0,0.5-0.3,0.9-0.8,1.1c-0.1,0-0.2,0.1-0.4,0.1
	c-0.6,0-1.1-0.5-1.1-1.1c0-0.5,0.4-1,0.9-1.1c0.1,0,0.2,0,0.3,0C67.9,42.9,68.4,43.5,68.4,44.1z"/>
</svg>
