<?xml version="1.0" encoding="utf-8"?>
<!-- Generator: Adobe Illustrator 18.0.0, SVG Export Plug-In . SVG Version: 6.00 Build 0)  -->
<!DOCTYPE svg PUBLIC "-//W3C//DTD SVG 1.1//EN" "http://www.w3.org/Graphics/SVG/1.1/DTD/svg11.dtd">
<svg version="1.1" id="Layer_1" xmlns="http://www.w3.org/2000/svg" xmlns:xlink="http://www.w3.org/1999/xlink" x="0px" y="0px"
	 viewBox="18.7 13.5 65 43.7" enable-background="new 18.7 13.5 65 43.7" xml:space="preserve">
<g>
	<path d="M49.1,33.2c2.9,2,5.8,3.9,8.7,5.9c1.6-0.6,3.2-1.3,4.7-1.9c-2.7-1.9-5.3-3.6-8-5.5C52.6,32.3,50.9,32.7,49.1,33.2z"/>
	<path d="M30.1,15.2c-2.4,0.1-4.7,0.1-7.1,0.2c2.9,2,5.8,3.9,8.7,5.9c2.1-0.2,4.3-0.4,6.4-0.7C35.4,18.8,32.8,17,30.1,15.2z"/>
	<path d="M46.6,26.4c-2,0.4-3.9,0.7-5.9,1c2.6,1.8,5.2,3.6,7.8,5.3c1.8-0.4,3.6-1,5.4-1.4C51.4,29.7,49,28.1,46.6,26.4z"/>
	<path d="M38.7,21c-2.1,0.2-4.3,0.4-6.4,0.7c2.6,1.8,5.2,3.6,7.8,5.3c2-0.4,3.9-0.7,5.9-1C43.5,24.3,41.1,22.7,38.7,21z"/>
	<path d="M43.5,20.1c-0.7-0.5-1.4-1-2-1.4c-1.7-1.2-3.3-2.3-5-3.5C36.3,15.1,36,15,35.8,15c-1.6,0-3,0.1-4.6,0.1
		c2.7,1.8,5.3,3.6,7.9,5.4C40.5,20.4,42,20.2,43.5,20.1z"/>
	<path d="M66,35.4c-2.2-1.5-4.4-3-6.6-4.5c-0.1-0.1-0.3-0.1-0.4-0.3c-1.3,0.3-2.5,0.7-3.7,1c2.7,1.8,5.3,3.6,7.9,5.4
		c1-0.4,1.9-0.7,2.9-1.1C66.3,35.7,66.3,35.6,66,35.4z"/>
	<path d="M67.1,35.4c1-0.4,2-0.8,3-1.2c0.3-0.1,0.4-0.2,0-0.4C68,32.4,66,31,64,29.6c-0.1-0.1-0.3-0.1-0.4-0.3
		c-1.3,0.4-2.6,0.7-3.9,1C62.2,32.1,64.6,33.8,67.1,35.4z"/>
	<path d="M42,14.8c-1.6,0.1-3.3,0.1-4.9,0.1c2.4,1.7,4.9,3.3,7.3,5c1.6-0.1,3-0.3,4.7-0.5c-2.2-1.6-4.4-3-6.7-4.5
		C42.3,14.9,42,14.8,42,14.8z"/>
	<path d="M57.8,30.4c0.4-0.1,0.4-0.2,0.1-0.4c-2-1.3-4-2.7-6-4.1c-0.1-0.1-0.3-0.1-0.4-0.3c-1.4,0.2-2.7,0.5-4.1,0.7
		c2.4,1.6,4.7,3.3,7.2,4.9C55.7,30.9,56.7,30.6,57.8,30.4z"/>
	<path d="M39.7,21c2.4,1.6,4.7,3.3,7.1,4.9c1.3-0.2,2.7-0.4,4.1-0.7c-2.3-1.6-4.5-3.1-6.8-4.7C42.6,20.7,41.1,20.8,39.7,21z"/>
	<path d="M59.1,30c1.3-0.4,2.6-0.7,3.9-1c-2.1-1.5-4.2-2.9-6.3-4.3c-1.4,0.2-2.8,0.5-4.2,0.7C54.6,27,56.9,28.4,59.1,30z"/>
	<path d="M51.7,25c1.4-0.2,2.8-0.5,4.2-0.7c-2.1-1.4-4.2-2.9-6.3-4.3c-1.6,0.1-3,0.3-4.6,0.5C47.3,21.9,49.5,23.4,51.7,25z"/>
	<path d="M67.2,27.3c2,1.3,4,2.7,5.9,4.1c1.1-0.4,2.1-0.8,3.3-1.3c-1.9-1.3-3.7-2.5-5.5-3.8C69.7,26.6,68.5,26.9,67.2,27.3z"/>
	<path d="M54.2,14.8c-1.6,0.1-3.3,0.1-4.9,0.1c2,1.4,4,2.7,5.9,4.1c1.5-0.1,3-0.3,4.4-0.4C57.8,17.3,56,16.1,54.2,14.8z"/>
	<path d="M83.4,27.8L63.3,14.1c-0.4-0.2-0.7-0.4-0.7-0.4h-0.1c0,0-0.4,0-0.8,0l-14.1,0.4c-0.4,0-1,0-1.3,0c-0.2,0-0.3,0.1-0.1,0.3
		c0.2,0.1,0.7,0.4,1,0.7l12.3,8.4c0,0.7,0,1.3,0,1.6l-16.3-11c-0.5-0.4-1-0.7-1-0.7c-0.1,0-0.1-0.1-0.1-0.1c-0.1,0-0.6,0-1.2,0
		l-20.4,0.6c-0.6,0-1.5,0.1-1.9,0.1s-0.4,0.2-0.1,0.4c0.3,0.2,1,0.7,1.5,1l15.9,11c0,6.6,0,19.6,0,27.4c-2.8,1.3-4.7,2.2-4.7,2.3
		c-0.7,0.6,3.9,1,4.7,0.8c0.9-0.3,36.3-19,42.7-22.7H78c0,0-4.4,2.1-9.6,4.8V37l4.4-2c0.6-0.2,0.6-0.7,0.1-1.1l-4.4-3v-1.5l4.1,3
		c0.4,0.2,0.6,0.4,0.7,0.5c0.1,0,0.4-0.1,0.7-0.2l9.6-4.1C83.8,28.3,83.8,28,83.4,27.8z M44.5,50c-2.1,1-4.3,1.9-5.8,2.7V28.4l5.7,4
		C44.5,39.1,44.5,43.3,44.5,50z M47.6,48.7V34.2l9,6.4c0.5,0.4,0.9,0.7,0.9,0.7c0.1,0.1,0.5-0.1,1.1-0.4l0.9-0.4l0.2,2.5
		C55.7,45,51.3,46.9,47.6,48.7z M66.4,40.1c-1.6,0.7-3.3,1.5-4.7,2.3v-2.4l4.8-2.1L66.4,40.1z M71.3,33.7c0.5,0.4,0.4,0.8-0.1,1
		l-12.5,5.2c-0.6,0.2-1.5,0.1-2-0.2L21.8,15.6C21.3,15.3,21.4,15,22,15l18.9-0.8c0.6,0,1.6,0.2,2.1,0.6L71.3,33.7z M59.6,25.2
		c0-0.4,0-0.8,0-1.3C59.6,24.2,59.6,24.7,59.6,25.2L59.6,25.2z M61.7,26.3v-1.6l5.1,3.6l-0.1,1.5L61.7,26.3z M82.6,28.3l-8.7,3.6
		c-0.4,0.1-1,0.1-1.3-0.1L48.4,15.1c-0.4-0.2-0.3-0.4,0.1-0.4l13.1-0.6c0.4,0,1.1,0.1,1.4,0.4l19.6,13.1
		C83,27.9,82.9,28.1,82.6,28.3z"/>
	<path d="M65.6,22.6c-1.4,0.2-2.7,0.5-4.1,0.7c1.8,1.3,3.6,2.4,5.3,3.6c1.3-0.3,2.4-0.7,3.7-1C68.9,24.8,67.2,23.7,65.6,22.6z"/>
	<path d="M60.1,18.8c-1.5,0.1-3,0.3-4.4,0.4c1.8,1.3,3.6,2.4,5.3,3.6c1.4-0.2,2.7-0.4,4.1-0.7C63.4,21.1,61.7,20,60.1,18.8z"/>
	<path d="M63.4,18.1c-0.5-0.4-1-0.7-1.4-1c-1.2-0.8-2.3-1.6-3.5-2.4c-0.1-0.1-0.4-0.1-0.5-0.1c-1,0-2.1,0.1-3.2,0.1
		c1.9,1.3,3.6,2.4,5.5,3.7C61.4,18.4,62.3,18.3,63.4,18.1z"/>
	<path d="M78.9,28.7c-1.6-1-3-2.1-4.6-3.1c-0.1-0.1-0.2-0.1-0.3-0.2c-0.9,0.2-1.7,0.4-2.6,0.7c1.9,1.3,3.6,2.4,5.5,3.7
		c0.7-0.3,1.3-0.5,2-0.7C79.1,29,79.1,28.9,78.9,28.7z"/>
	<path d="M81.7,27.7c-1.4-1-2.8-1.9-4.2-2.9c-0.1-0.1-0.2-0.1-0.3-0.2c-0.9,0.2-1.8,0.4-2.7,0.7c1.7,1.2,3.4,2.3,5.1,3.5
		c0.7-0.3,1.4-0.5,2.1-0.8C82,27.9,82,27.9,81.7,27.7z"/>
	<path d="M67.2,17.8c-1.6-1-3-2.1-4.6-3.1c-0.1-0.1-0.2-0.1-0.3-0.1c-1.1,0-2.2,0.1-3.4,0.1c1.7,1.2,3.3,2.3,5.1,3.5
		C65.1,18,66.2,17.9,67.2,17.8z"/>
	<path d="M73.3,25.3c0.3-0.1,0.3-0.1,0.1-0.3c-1.4-1-2.7-1.9-4.1-2.8c-0.1-0.1-0.2-0.1-0.3-0.2c-1,0.1-1.9,0.3-2.8,0.5
		c1.6,1.1,3.3,2.2,5,3.4C71.8,25.6,72.6,25.4,73.3,25.3z"/>
	<path d="M60.8,18.8c1.6,1.1,3.3,2.2,5,3.3c1-0.1,1.9-0.3,2.8-0.5c-1.6-1-3.1-2.1-4.7-3.2C62.8,18.6,61.8,18.7,60.8,18.8z"/>
	<path d="M74.2,25c0.9-0.2,1.8-0.4,2.7-0.7c-1.5-1-2.9-2-4.4-3c-1,0.1-1.9,0.4-3,0.5C71.1,22.9,72.6,23.9,74.2,25z"/>
	<path d="M69.1,21.6c1-0.1,1.9-0.4,2.9-0.5c-1.5-1-2.9-2-4.4-3c-1,0.1-2.1,0.2-3.2,0.4C66,19.5,67.5,20.5,69.1,21.6z"/>
</g>
</svg>
