<?xml version="1.0" encoding="utf-8"?>
<!-- Generator: Adobe Illustrator 18.0.0, SVG Export Plug-In . SVG Version: 6.00 Build 0)  -->
<!DOCTYPE svg PUBLIC "-//W3C//DTD SVG 1.1//EN" "http://www.w3.org/Graphics/SVG/1.1/DTD/svg11.dtd">
<svg version="1.1" id="nebson_x5F_engine_x5F_coolant_x5F_temperature"
	 xmlns="http://www.w3.org/2000/svg" xmlns:xlink="http://www.w3.org/1999/xlink" x="0px" y="0px" viewBox="21.6 8.4 59.4 52.1"
	 enable-background="new 21.6 8.4 59.4 52.1" xml:space="preserve">
<path d="M36.2,51.4c2.6,0,3.4-1.4,5-2.2c-0.2-0.9-0.4-1.8-0.4-2.8c0-0.2,0-0.4,0-0.7c-1.4,0.8-2.2,2-4.6,2c-3.7,0-3.7-2.7-7.3-2.7
	c-3.7,0-3.7,2.7-7.3,2.7v3.7c3.7,0,3.7-2.7,7.3-2.7C32.6,48.6,32.6,51.4,36.2,51.4z M51.3,52.3c3.3,0,5.9-2.7,5.9-5.9
	c0-2.1-1.1-3.9-2.7-5v-2.8h10.1c1,0,1.8-0.8,1.8-1.8c0-1-0.8-1.8-1.8-1.8H54.5v-5.5h10.1c1,0,1.8-0.8,1.8-1.8c0-1-0.8-1.8-1.8-1.8
	H54.5v-5.5h10.1c1,0,1.8-0.8,1.8-1.8c0-1-0.8-1.8-1.8-1.8H54.5v-5.5h0c-0.2-1.5-1.5-2.7-3.2-2.7c-1.6,0-2.9,1.2-3.2,2.7h0v30.2
	c-1.6,1.1-2.7,2.9-2.7,5C45.4,49.6,48,52.3,51.3,52.3z M66.4,56.9c-3.7,0-3.7-2.7-7.3-2.7c-3.5,0-3.7,2.5-7.8,2.7
	c-4.1-0.2-4.2-2.7-7.8-2.7c-3.7,0-3.7,2.7-7.3,2.7c-3.7,0-3.7-2.7-7.3-2.7c-1.8,0-2.7,0.7-3.7,1.4v3.7c0.9-0.7,1.8-1.4,3.7-1.4
	c3.7,0,3.7,2.7,7.3,2.7s3.7-2.7,7.3-2.7c3.4,0,3.6,2.4,7.3,2.7v0c0.2,0,0.3,0,0.5,0c0.2,0,0.3,0,0.5,0v0c3.7-0.3,3.9-2.7,7.3-2.7
	c3.7,0,3.7,2.7,7.3,2.7c3.7,0,3.7-2.7,7.3-2.7c1.8,0,2.7,0.7,3.7,1.4v-3.7c-0.9-0.7-1.8-1.4-3.7-1.4C70,54.1,70,56.9,66.4,56.9z
	 M73.7,45c-3.7,0-3.7,2.7-7.3,2.7c-2.4,0-3.3-1.2-4.6-2c0,0.2,0,0.4,0,0.7c0,1-0.1,1.9-0.4,2.8c1.6,0.8,2.3,2.2,5,2.2
	c3.7,0,3.7-2.7,7.3-2.7c3.7,0,3.7,2.7,7.3,2.7v-3.7C77.4,47.7,77.4,45,73.7,45z"/>
</svg>
