<?xml version="1.0" encoding="utf-8"?>
<!-- Generator: Adobe Illustrator 18.0.0, SVG Export Plug-In . SVG Version: 6.00 Build 0)  -->
<!DOCTYPE svg PUBLIC "-//W3C//DTD SVG 1.1//EN" "http://www.w3.org/Graphics/SVG/1.1/DTD/svg11.dtd">
<svg version="1.1" id="Layer_1" xmlns="http://www.w3.org/2000/svg" xmlns:xlink="http://www.w3.org/1999/xlink" x="0px" y="0px"
	 viewBox="-1210 158.9 1441.3 604.9" enable-background="new -1210 158.9 1441.3 604.9" xml:space="preserve">
<g id="Layer_2">
	<path d="M229.9,311.8c-4-12.8-15.2-20.8-28-20.8c-3.2,0-5.6,0.8-8.8,1.6l-40.8,12.8v-96c0-24-14.4-37.6-36.8-37.6H-61.3
		c-22.4,0-38.4,13.6-38.4,37.6v183.2c-20.8,8.8-35.2,15.2-38.4,16.8c-24.8,12.8-44,41.6-48,53.6c-4.8,12-121.6,300.8-121.6,300.8
		h240.8c0,0,58.4-24.8,89.6-58.4c12.8-14.4,23.2-33.6,30.4-49.6h64c20,0,35.2-12.8,35.2-38.4v-21.6h25.6c16,0,29.6-13.6,29.6-29.6
		s-13.6-29.6-29.6-29.6h-25.6V527h26.4c16,0,29.6-13.6,29.6-29.6s-13.6-29.6-29.6-29.6h-26.4v-9.6h26.4c16,0,29.6-13.6,29.6-29.6
		S194.7,399,178.7,399h-26.4v-31.2l58.4-18.4c7.2-2.4,13.6-7.2,17.6-14.4C231.5,327,232.3,319,229.9,311.8z M25.1,631
		c-7.2,0-12.8-5.6-12.8-12.8s5.6-12.8,12.8-12.8s12.8,5.6,12.8,12.8C37.9,625.4,32.3,631,25.1,631z M125.1,587.8H-25.3
		c0,14.4-1.6,34.4-6.4,55.2c-11.2,42.4-47.2,66.4-48.8,67.2s-3.2,1.6-4.8,1.6c-2.4,0-5.6-1.6-7.2-4c-2.4-4-1.6-8.8,2.4-12
		c0,0,32-21.6,41.6-56.8c9.6-37.6,4.8-72,4.8-72c0-0.8,0-1.6,0-2.4h96.8c20,0,39.2-12,39.2-35.2S74.7,491,53.1,491h-164v-16.8h36.8
		V235.8h200L125.1,587.8L125.1,587.8L125.1,587.8z"/>
</g>
<circle cx="-560.9" cy="187.5" r="6.4"/>
<circle cx="-540.8" cy="187.5" r="6.4"/>
<circle cx="-521.7" cy="187.5" r="6.4"/>
<path fill="none" d="M-522.7,234.2C-523.8,234.2-523.8,234.2-522.7,234.2C-523.8,235.2-522.7,235.2-522.7,234.2l8.5,3.2l0,0l0,0
	v-8.5l0,0l0,0l-2.1,1.1l0,0c-1.1-1.1-2.1-2.1-3.2-2.1c-1.1-1.1-3.2-1.1-4.2-1.1s-3.2,0-4.2,1.1c-1.1,1.1-2.1,1.1-3.2,2.1
	c-1.1,1.1-2.1,2.1-2.1,3.2c-1.1,1.1-1.1,3.2-1.1,4.2s0,3.2,1.1,4.2c1.1,1.1,1.1,2.1,2.1,3.2s2.1,2.1,3.2,2.1
	c1.1,1.1,3.2,1.1,4.2,1.1s2.1,0,3.2,0c1.1,0,2.1-1.1,2.1-1.1c1.1,0,1.1-1.1,2.1-1.1c1.1-1.1,1.1-1.1,2.1-2.1l0,0l0,0l-3.2-2.1l0,0
	l0,0c-1.1,1.1-1.1,2.1-2.1,2.1c-1.1,0-2.1,1.1-3.2,1.1c-1.1,0-2.1,0-2.1,0c-1.1,0-1.1-1.1-2.1-1.1c-1.1-1.1-1.1-1.1-1.1-2.1
	c0-1.1,0-2.1,0-2.1v-2.1c0-1.1,1.1-1.1,1.1-2.1c1.1-1.1,1.1-1.1,2.1-1.1S-522.7,234.2-522.7,234.2c1.1,0,1.1,0,2.1,0
	c1.1,0,1.1,1.1,2.1,1.1l0,0L-522.7,234.2z"/>
<g>
	<polygon fill="none" points="-1105.9,249 -1105.9,238.4 -1102.7,238.4 -1114.4,226.8 -1126,238.4 -1122.9,238.4 -1122.9,249 
		-1116.5,249 -1116.5,242.7 -1112.3,242.7 -1112.3,249 	"/>
	<polygon fill="none" points="-1193.9,420.8 -1188.6,420.8 -1143,384.7 -1114.4,404.9 -1074.1,384.7 -1040.2,395.3 -991.4,344.4 
		-958.5,393.2 -924.6,384.7 -902.3,409.1 -838.7,401.7 -788.9,362.5 -741.2,391.1 -694.5,384.7 -658.4,360.4 -623.5,344.4 
		-592.7,368.8 -557.7,336 -524.8,355 -499.4,313.7 -499.4,268.1 -1193.9,268.1 	"/>
	<polygon fill="none" points="-1182.2,238.4 -1171.6,248 -1171.6,243.7 -1162.1,243.7 -1162.1,233.1 -1171.6,233.1 -1171.6,228.9 	
		"/>
	<path fill="none" d="M-1193.9,678.4c0,3.2,2.1,5.3,5.3,5.3h682.8c3.2,0,5.3-2.1,5.3-5.3V429.3h-693.4V678.4z M-1162.1,508.8h20.1
		v7.4h-20.1V508.8z M-1162.1,521.5h203.6v7.4h-203.6V521.5z M-1162.1,535.3h203.6v7.4h-203.6V535.3z M-1162.1,562.9h20.1v7.4h-20.1
		V562.9z M-1162.1,575.6h203.6v7.4h-203.6V575.6z M-1162.1,589.4h203.6v7.4h-203.6V589.4z"/>
	<polygon fill="none" points="-1132.4,238.4 -1144.1,228.9 -1144.1,233.1 -1152.6,233.1 -1152.6,243.7 -1144.1,243.7 -1144.1,248 	
		"/>
	<path fill="none" d="M-505.8,165.3h-682.8c-3.2,0-5.3,2.1-5.3,5.3v38.2h693.4v-38.2C-499.4,168.4-502.6,165.3-505.8,165.3z"/>
	<path fill="none" d="M-522.7,234.2C-523.8,234.2-523.8,234.2-522.7,234.2C-523.8,235.2-522.7,235.2-522.7,234.2l8.5,3.2l0,0l0,0
		v-8.5l0,0l0,0l-2.1,1.1l0,0c-1.1-1.1-2.1-2.1-3.2-2.1c-1.1-1.1-3.2-1.1-4.2-1.1s-3.2,0-4.2,1.1c-1.1,1.1-2.1,1.1-3.2,2.1
		c-1.1,1.1-2.1,2.1-2.1,3.2c-1.1,1.1-1.1,3.2-1.1,4.2s0,3.2,1.1,4.2c1.1,1.1,1.1,2.1,2.1,3.2s2.1,2.1,3.2,2.1
		c1.1,1.1,3.2,1.1,4.2,1.1s2.1,0,3.2,0c1.1,0,2.1-1.1,2.1-1.1c1.1,0,1.1-1.1,2.1-1.1c1.1-1.1,1.1-1.1,2.1-2.1l0,0l0,0l-3.2-2.1l0,0
		l0,0c-1.1,1.1-1.1,2.1-2.1,2.1c-1.1,0-2.1,1.1-3.2,1.1c-1.1,0-2.1,0-2.1,0c-1.1,0-1.1-1.1-2.1-1.1c-1.1-1.1-1.1-1.1-1.1-2.1
		c0-1.1,0-2.1,0-2.1v-2.1c0-1.1,1.1-1.1,1.1-2.1c1.1-1.1,1.1-1.1,2.1-1.1S-522.7,234.2-522.7,234.2c1.1,0,1.1,0,2.1,0
		c1.1,0,1.1,1.1,2.1,1.1l0,0L-522.7,234.2z"/>
	<path fill="none" d="M-551.4,250.1c1.1,0,2.1-1.1,2.1-2.1v-18c0-1.1-1.1-2.1-2.1-2.1h-537.6c-1.1,0-2.1,1.1-2.1,2.1v18
		c0,1.1,1.1,2.1,2.1,2.1H-551.4z"/>
	<rect x="-1162.1" y="508.8" width="20.1" height="7.4"/>
	<rect x="-1162.1" y="521.5" width="204.6" height="7.4"/>
	<rect x="-1162.1" y="535.3" width="204.6" height="7.4"/>
	<rect x="-1162.1" y="562.9" width="20.1" height="7.4"/>
	<rect x="-1162.1" y="575.6" width="204.6" height="7.4"/>
	<rect x="-1162.1" y="589.4" width="204.6" height="7.4"/>
	<path d="M-505.8,158.9h-682.8c-6.4,0-11.7,5.3-11.7,11.7v507.9c0,6.4,5.3,11.7,11.7,11.7h682.8c6.4,0,11.7-5.3,11.7-11.7V171.6
		C-493,164.2-498.3,158.9-505.8,158.9z M-499.4,678.4c0,3.2-2.1,5.3-5.3,5.3h-683.9c-3.2,0-5.3-2.1-5.3-5.3V429.3h693.4
		L-499.4,678.4L-499.4,678.4z M-499.4,313.7l-25.4,41.4l-32.9-19.1l-35,33.9l-29.7-24.4l-36.1,15.9l-35,24.4l-46.7,6.4l-48.8-29.7
		l-49.8,39.2l-63.6,8.5l-22.3-24.4l-33.9,7.4l-32.9-48.8l-48.8,50.9l-33.9-10.6l-40.3,20.1l-28.6-20.1l-45.6,36.1h-5.3V268.1h693.4
		v45.6H-499.4z M-1162.1,233.1v10.6h-8.5v4.2l-11.7-9.5l11.7-9.5v4.2C-1171.6,233.1-1162.1,233.1-1162.1,233.1z M-1152.6,243.7
		v-10.6h8.5v-4.2l11.7,9.5l-11.7,9.5v-4.2H-1152.6z M-1116.5,242.7v6.4h-6.4v-10.6h-4.2l11.7-10.6l11.7,10.6h-4.2V249h-6.4v-6.4
		C-1112.3,242.7-1116.5,242.7-1116.5,242.7z M-1091.1,248v-18c0-1.1,1.1-2.1,2.1-2.1h536.5c1.1,0,2.1,1.1,2.1,2.1v18
		c0,1.1-1.1,2.1-2.1,2.1h-536.5C-1090,250.1-1091.1,249-1091.1,248z M-522.7,232.1c-1.1,0-1.1,0-2.1,0c-1.1,0-2.1,0-2.1,0
		c-1.1,0-1.1,1.1-2.1,1.1c-1.1,1.1-1.1,1.1-1.1,2.1c0,1.1,0,2.1,0,2.1c0,1.1,0,2.1,0,2.1c0,1.1,1.1,1.1,1.1,2.1
		c1.1,1.1,1.1,1.1,2.1,1.1s2.1,0,2.1,0c1.1,0,2.1,0,3.2-1.1c1.1,0,2.1-1.1,2.1-2.1l0,0l0,0l3.2,2.1l0,0l0,0c0,1.1-1.1,1.1-2.1,2.1
		c-1.1,1.1-1.1,1.1-2.1,1.1c-1.1,0-2.1,1.1-2.1,1.1c-1.1,0-2.1,0-3.2,0c-1.1,0-3.2,0-4.2-1.1s-2.1-1.1-3.2-2.1
		c-1.1-1.1-2.1-2.1-2.1-3.2c-1.1-1.1-1.1-3.2-1.1-4.2s0-3.2,1.1-4.2c1.1-1.1,1.1-2.1,2.1-3.2c1.1-1.1,2.1-2.1,3.2-2.1
		c1.1-1.1,3.2-1.1,4.2-1.1s3.2,0,4.2,1.1c1.1,1.1,2.1,1.1,3.2,2.1l0,0l2.1-1.1l0,0l0,0v8.5l0,0l0,0l-7.4-3.2l0,0l0,0l2.1-1.1l0,0
		C-521.7,232.1-521.7,232.1-522.7,232.1z M-499.4,208.7h-694.5v-38.2c0-3.2,2.1-5.3,5.3-5.3h682.8c3.2,0,5.3,2.1,5.3,5.3
		L-499.4,208.7L-499.4,208.7z"/>
</g>
<path d="M-634.1,552.3v-73.2c-40.3,1.1-72.1,33.9-72.1,74.2c0,20.1,7.4,38.2,20.1,50.9L-634.1,552.3z"/>
<path d="M-631.9,626.5c41.4,0,74.2-32.9,74.2-74.2c0-40.3-31.8-73.2-72.1-74.2v74.2v1.1l-53,53
	C-670.1,619.1-652.1,626.5-631.9,626.5z"/>
</svg>
