<?xml version="1.0" encoding="utf-8"?>
<!-- Generator: Adobe Illustrator 18.0.0, SVG Export Plug-In . SVG Version: 6.00 Build 0)  -->
<!DOCTYPE svg PUBLIC "-//W3C//DTD SVG 1.1//EN" "http://www.w3.org/Graphics/SVG/1.1/DTD/svg11.dtd">
<svg version="1.1" id="Layer_1" xmlns="http://www.w3.org/2000/svg" xmlns:xlink="http://www.w3.org/1999/xlink" x="0px" y="0px"
	 viewBox="16.5 -0.5 70 70" enable-background="new 16.5 -0.5 70 70" xml:space="preserve">
<circle cx="78.5" cy="12.1" r="0.6"/>
<circle cx="80.4" cy="12.1" r="0.6"/>
<circle cx="82.2" cy="12.1" r="0.6"/>
<path fill="none" d="M82.1,16.5C82,16.5,82,16.5,82.1,16.5C82,16.6,82.1,16.6,82.1,16.5l0.8,0.3c0,0,0,0,0,0c0,0,0,0,0,0l0-0.8
	c0,0,0,0,0,0c0,0,0,0,0,0l-0.2,0.1l0,0c-0.1-0.1-0.2-0.2-0.3-0.2c-0.1-0.1-0.3-0.1-0.4-0.1c-0.1,0-0.3,0-0.4,0.1
	c-0.1,0.1-0.2,0.1-0.3,0.2c-0.1,0.1-0.2,0.2-0.2,0.3c-0.1,0.1-0.1,0.3-0.1,0.4c0,0.1,0,0.3,0.1,0.4c0.1,0.1,0.1,0.2,0.2,0.3
	c0.1,0.1,0.2,0.2,0.3,0.2c0.1,0.1,0.3,0.1,0.4,0.1c0.1,0,0.2,0,0.3,0c0.1,0,0.2-0.1,0.2-0.1c0.1,0,0.1-0.1,0.2-0.1
	c0.1-0.1,0.1-0.1,0.2-0.2c0,0,0,0,0,0c0,0,0,0,0,0l-0.3-0.2c0,0,0,0,0,0c0,0,0,0,0,0c-0.1,0.1-0.1,0.2-0.2,0.2
	c-0.1,0-0.2,0.1-0.3,0.1c-0.1,0-0.2,0-0.2,0c-0.1,0-0.1-0.1-0.2-0.1c-0.1-0.1-0.1-0.1-0.1-0.2c0-0.1,0-0.2,0-0.2s0-0.2,0-0.2
	c0-0.1,0.1-0.1,0.1-0.2c0.1-0.1,0.1-0.1,0.2-0.1c0.1,0,0.2,0,0.2,0c0.1,0,0.1,0,0.2,0c0.1,0,0.1,0.1,0.2,0.1l0,0L82.1,16.5z"/>
<g>
	<polygon fill="none" points="27.1,17.9 27.1,16.9 27.4,16.9 26.3,15.8 25.2,16.9 25.5,16.9 25.5,17.9 26.1,17.9 26.1,17.3 
		26.5,17.3 26.5,17.9 	"/>
	<polygon fill="none" points="18.8,34.1 19.3,34.1 23.6,30.7 26.3,32.6 30.1,30.7 33.3,31.7 37.9,26.9 41,31.5 44.2,30.7 46.3,33 
		52.3,32.3 57,28.6 61.5,31.3 65.9,30.7 69.3,28.4 72.6,26.9 75.5,29.2 78.8,26.1 81.9,27.9 84.3,24 84.3,19.7 18.8,19.7 	"/>
	<polygon fill="none" points="19.9,16.9 20.9,17.8 20.9,17.4 21.8,17.4 21.8,16.4 20.9,16.4 20.9,16 	"/>
	<path fill="none" d="M18.8,58.4c0,0.3,0.2,0.5,0.5,0.5h64.4c0.3,0,0.5-0.2,0.5-0.5V34.9H18.8V58.4z M21.8,42.4h1.9v0.7h-1.9V42.4z
		 M21.8,43.6H41v0.7H21.8V43.6z M21.8,44.9H41v0.7H21.8V44.9z M21.8,47.5h1.9v0.7h-1.9V47.5z M21.8,48.7H41v0.7H21.8V48.7z M21.8,50
		H41v0.7H21.8V50z"/>
	<polygon fill="none" points="24.6,16.9 23.5,16 23.5,16.4 22.7,16.4 22.7,17.4 23.5,17.4 23.5,17.8 	"/>
	<path fill="none" d="M83.7,10H19.3c-0.3,0-0.5,0.2-0.5,0.5v3.6h65.4v-3.6C84.3,10.3,84,10,83.7,10z"/>
	<path fill="none" d="M82.1,16.5C82,16.5,82,16.5,82.1,16.5C82,16.6,82.1,16.6,82.1,16.5l0.8,0.3c0,0,0,0,0,0c0,0,0,0,0,0l0-0.8
		c0,0,0,0,0,0c0,0,0,0,0,0l-0.2,0.1l0,0c-0.1-0.1-0.2-0.2-0.3-0.2c-0.1-0.1-0.3-0.1-0.4-0.1c-0.1,0-0.3,0-0.4,0.1
		c-0.1,0.1-0.2,0.1-0.3,0.2c-0.1,0.1-0.2,0.2-0.2,0.3c-0.1,0.1-0.1,0.3-0.1,0.4c0,0.1,0,0.3,0.1,0.4c0.1,0.1,0.1,0.2,0.2,0.3
		c0.1,0.1,0.2,0.2,0.3,0.2c0.1,0.1,0.3,0.1,0.4,0.1c0.1,0,0.2,0,0.3,0c0.1,0,0.2-0.1,0.2-0.1c0.1,0,0.1-0.1,0.2-0.1
		c0.1-0.1,0.1-0.1,0.2-0.2c0,0,0,0,0,0c0,0,0,0,0,0l-0.3-0.2c0,0,0,0,0,0c0,0,0,0,0,0c-0.1,0.1-0.1,0.2-0.2,0.2
		c-0.1,0-0.2,0.1-0.3,0.1c-0.1,0-0.2,0-0.2,0c-0.1,0-0.1-0.1-0.2-0.1c-0.1-0.1-0.1-0.1-0.1-0.2c0-0.1,0-0.2,0-0.2s0-0.2,0-0.2
		c0-0.1,0.1-0.1,0.1-0.2c0.1-0.1,0.1-0.1,0.2-0.1c0.1,0,0.2,0,0.2,0c0.1,0,0.1,0,0.2,0c0.1,0,0.1,0.1,0.2,0.1l0,0L82.1,16.5z"/>
	<path fill="none" d="M79.4,18c0.1,0,0.2-0.1,0.2-0.2v-1.7c0-0.1-0.1-0.2-0.2-0.2H28.7c-0.1,0-0.2,0.1-0.2,0.2v1.7
		c0,0.1,0.1,0.2,0.2,0.2H79.4z"/>
	<rect x="21.8" y="42.4" width="1.9" height="0.7"/>
	<rect x="21.8" y="43.6" width="19.3" height="0.7"/>
	<rect x="21.8" y="44.9" width="19.3" height="0.7"/>
	<rect x="21.8" y="47.5" width="1.9" height="0.7"/>
	<rect x="21.8" y="48.7" width="19.3" height="0.7"/>
	<rect x="21.8" y="50" width="19.3" height="0.7"/>
	<path d="M83.7,9.4H19.3c-0.6,0-1.1,0.5-1.1,1.1v47.9c0,0.6,0.5,1.1,1.1,1.1h64.4c0.6,0,1.1-0.5,1.1-1.1V10.6
		C84.9,9.9,84.4,9.4,83.7,9.4z M84.3,58.4c0,0.3-0.2,0.5-0.5,0.5H19.3c-0.3,0-0.5-0.2-0.5-0.5V34.9h65.4L84.3,58.4L84.3,58.4z
		 M84.3,24l-2.4,3.9l-3.1-1.8l-3.3,3.2l-2.8-2.3l-3.4,1.5l-3.3,2.3l-4.4,0.6L57,28.6l-4.7,3.7l-6,0.8l-2.1-2.3L41,31.5l-3.1-4.6
		l-4.6,4.8l-3.2-1l-3.8,1.9l-2.7-1.9l-4.3,3.4h-0.5V19.7h65.4V24z M21.8,16.4v1h-0.8v0.4l-1.1-0.9l1.1-0.9v0.4
		C20.9,16.4,21.8,16.4,21.8,16.4z M22.7,17.4v-1h0.8V16l1.1,0.9l-1.1,0.9v-0.4C23.5,17.4,22.7,17.4,22.7,17.4z M26.1,17.3v0.6h-0.6
		v-1h-0.4l1.1-1l1.1,1h-0.4v1h-0.6v-0.6C26.5,17.3,26.1,17.3,26.1,17.3z M28.5,17.8v-1.7c0-0.1,0.1-0.2,0.2-0.2h50.6
		c0.1,0,0.2,0.1,0.2,0.2v1.7c0,0.1-0.1,0.2-0.2,0.2H28.7C28.6,18,28.5,17.9,28.5,17.8z M82.1,16.3c-0.1,0-0.1,0-0.2,0
		c-0.1,0-0.2,0-0.2,0c-0.1,0-0.1,0.1-0.2,0.1c-0.1,0.1-0.1,0.1-0.1,0.2c0,0.1,0,0.2,0,0.2c0,0.1,0,0.2,0,0.2c0,0.1,0.1,0.1,0.1,0.2
		c0.1,0.1,0.1,0.1,0.2,0.1c0.1,0,0.2,0,0.2,0c0.1,0,0.2,0,0.3-0.1c0.1,0,0.2-0.1,0.2-0.2c0,0,0,0,0,0c0,0,0,0,0,0l0.3,0.2
		c0,0,0,0,0,0c0,0,0,0,0,0c0,0.1-0.1,0.1-0.2,0.2c-0.1,0.1-0.1,0.1-0.2,0.1c-0.1,0-0.2,0.1-0.2,0.1c-0.1,0-0.2,0-0.3,0
		c-0.1,0-0.3,0-0.4-0.1c-0.1-0.1-0.2-0.1-0.3-0.2c-0.1-0.1-0.2-0.2-0.2-0.3c-0.1-0.1-0.1-0.3-0.1-0.4c0-0.1,0-0.3,0.1-0.4
		c0.1-0.1,0.1-0.2,0.2-0.3s0.2-0.2,0.3-0.2c0.1-0.1,0.3-0.1,0.4-0.1c0.1,0,0.3,0,0.4,0.1c0.1,0.1,0.2,0.1,0.3,0.2l0,0l0.2-0.1
		c0,0,0,0,0,0c0,0,0,0,0,0l0,0.8c0,0,0,0,0,0c0,0,0,0,0,0l-0.7-0.3c0,0,0,0,0,0c0,0,0,0,0,0l0.2-0.1l0,0
		C82.2,16.3,82.2,16.3,82.1,16.3z M84.3,14.1H18.8v-3.6c0-0.3,0.2-0.5,0.5-0.5h64.4c0.3,0,0.5,0.2,0.5,0.5L84.3,14.1L84.3,14.1z"/>
</g>
<path d="M71.6,46.5v-6.9c-3.8,0.1-6.8,3.2-6.8,7c0,1.9,0.7,3.6,1.9,4.8L71.6,46.5z"/>
<path d="M71.8,53.5c3.9,0,7-3.1,7-7c0-3.8-3-6.9-6.8-7v7c0,0,0,0.1,0,0.1L67,51.6C68.2,52.8,69.9,53.5,71.8,53.5z"/>
</svg>
